# xmcd
#
# Track frame offsets:
#	150
#	10120
#	23550
#	33608
#	43375
#	54597
#	63129
#	75339
#	87501
#	102443
#	111323
#	120835
#	133364
#	144450
#	154148
#	168549
#	177918
#	190142
#	200685
#	212560
#	222432
#	233757
#	243412
#	255366
#	268735
#
# Disc length: 3715 seconds
#
# Revision: 0
# Processed by: cddbd v1.5.2PL0 Copyright (c) Steve Scherf et al.
# Submitted via: audiograbber 1.83.01
#
DISCID=630e8119
DTITLE=Frank Schöbel - Teenagerträume - CD 1 
DYEAR=2012
DGENRE=DDR
TTITLE0=Frank Schöbel - Looky Looky
TTITLE1=Frank Schöbel - Der Mädchenchor
TTITLE2=Chris Doerk and Frank Schöbel - Links von mir, rechts von mir
TTITLE3=Frank Schöbel - Baby, du bist O.K.
TTITLE4=Frank Schöbel - Schau lieber weg
TTITLE5=Frank Schöbel - Lied vom Taschengeld
TTITLE6=Frank Schöbel - Eh' ich dich küss (Menj)
TTITLE7=Frank Schöbel - So wie wir zwei
TTITLE8=Chris Doerk and Frank Schöbel - Heißer Sommer
TTITLE9=Frank Schöbel - Wir
TTITLE10=Chris Doerk and Frank Schöbel - Woher willst du wissen, wer ich bin
TTITLE11=Frank Schöbel - Ein Sommerlied
TTITLE12=Gerti Möller and Frank Schöbel - Fang doch den Sonnenstrahl
TTITLE13=Frank Schöbel - Ich kam zu spät
TTITLE14=Frank Schöbel - Eine kleine Burg im weißen Sand
TTITLE15=Frank Schöbel - Nimm die Gitarre
TTITLE16=Frank Schöbel - Wie der Sonnenschein
TTITLE17=Frank Schöbel - Bitte geh doch
TTITLE18=Frank Schöbel - Es ist gar nicht leicht
TTITLE19=Frank Schöbel - Außer Rand und Band
TTITLE20=Frank Schöbel - Wie schade, daß du kein Zwilling bist
TTITLE21=Frank Schöbel - Darauf steh' ich
TTITLE22=Chris Doerk and Frank Schöbel - Schön ist es, bei dir zu sein
TTITLE23=Frank Schöbel - Verzeih den Kuss
TTITLE24=Frank Schöbel - Blonder Stern
EXTD=
EXTT0=
EXTT1=
EXTT2=
EXTT3=
EXTT4=
EXTT5=
EXTT6=
EXTT7=
EXTT8=
EXTT9=
EXTT10=
EXTT11=
EXTT12=
EXTT13=
EXTT14=
EXTT15=
EXTT16=
EXTT17=
EXTT18=
EXTT19=
EXTT20=
EXTT21=
EXTT22=
EXTT23=
EXTT24=
PLAYORDER=
